# xmcd
#
# Track frame offsets:
#	150
#	15946
#	31576
#	42804
#	55035
#	72329
#	85486
#	98849
#	114627
#	125542
#
# Disc length: 1873 seconds
# Revision: 0
# Processed by: cddbd v1.5.2PL0 Copyright (c) Steve Scherf et al.
# Submitted via: dBpowerAMP V12.0
#
DISCID=75074f0a
DTITLE=George Jones - Jones Country [Epic] (L)
DYEAR=1983
DGENRE=Country
TTITLE0=Radio Lover
TTITLE1=Dream On
TTITLE2=Hello Trouble
TTITLE3=Burning Bridges
TTITLE4=Wino The Clown
TTITLE5=You Must Have Walked Across My Mind Again
TTITLE6=I'd Rather Die Young
TTITLE7=Girl At The End Of The Bar
TTITLE8=One Of These Days (But Not Tonight)
TTITLE9=Famous Last Words
EXTD=
EXTT0=
EXTT1=
EXTT2=
EXTT3=
EXTT4=
EXTT5=
EXTT6=
EXTT7=
EXTT8=
EXTT9=
PLAYORDER=
